# xmcd
#
# Track frame offsets:
#	150
#	17674
#	37009
#	52196
#	66709
#	83918
#	97577
#	114671
#	129990
#	145639
#	165290
#	178930
#	193438
#	208569
#	225924
#	241509
#	260228
#	276944
#	298755
#	316472
# Disc length: 4474 seconds
# Revision: 1
# Processed by: cddbd v1.5.2PL0 Copyright (c) Steve Scherf et al.
#
# Submitted via: libkcddb 0.31
#
DISCID=26117814
DTITLE=Just Bob - Summertime
DYEAR=2009
DGENRE=Country
TTITLE0=Still Like Rock And Roll
TTITLE1=Runnin' Wild
TTITLE2=In The Summertime
TTITLE3=Don't You Hesitate
TTITLE4=She'll Find One Day
TTITLE5=A Girl LIke You
TTITLE6=Rock and Roll's Arrived
TTITLE7=Mr. Hit Is Back
TTITLE8=Before I Met You
TTITLE9=Top Up Your Heart
TTITLE10=Don't Love You Anymore
TTITLE11=Keep Truckin' On
TTITLE12=Every SIngle Day
TTITLE13=Saturday Night
TTITLE14=Down With The Blues
TTITLE15=I'll Do It For You
TTITLE16=Don't You Ever Stop
TTITLE17=On Holiday
TTITLE18=The Reason Why
TTITLE19=Come Home Tonight
EXTD=
EXTT0=
EXTT1=
EXTT2=
EXTT3=
EXTT4=
EXTT5=
EXTT6=
EXTT7=
EXTT8=
EXTT9=
EXTT10=
EXTT11=
EXTT12=
EXTT13=
EXTT14=
EXTT15=
EXTT16=
EXTT17=
EXTT18=
EXTT19=
PLAYORDER=
